<svg width="32" height="32" viewBox="0 0 32 32" fill="none" xmlns="http://www.w3.org/2000/svg">
<path d="M3.477 26.5H8.091V15.313L1.5 9.75V24.525C1.5 25.617 2.386 26.5 3.477 26.5Z" fill="#80D8FF"/>
<path d="M23.909 26.5H28.523C29.614 26.5 30.5 25.617 30.5 24.525L30.531 10L23.909 15.313V26.5Z" fill="#1AD2A4"/>
<path d="M23.909 6.75801V15.313L30.5 10.377V7.74501C30.5 5.30401 27.71 3.91101 25.754 5.37501L23.909 6.75801Z" fill="#FFF176"/>
<path d="M8.091 15.313L7.563 6.31302L16 12.68L24.219 6.53102L23.909 15.313L16 21.236L8.091 15.313Z" fill="#FF8A80"/>
<path d="M1.5 7.74501V10.377L8.091 15.313V6.75801L6.246 5.37501C4.29 3.91101 1.5 5.30401 1.5 7.74501Z" fill="#E67C73"/>
<path d="M16.468 13.572C16.602 13.67 16.818 13.668 16.95 13.57L25.408 7.25901L27.253 5.87601C27.853 5.42701 28.531 5.24901 29.183 5.28501C28.202 4.63301 26.848 4.55701 25.753 5.37601L23.908 6.75901L16 12.68L15.809 13.09L16.468 13.572Z" fill="white"/>
<path d="M3 25.025V10.877V8.24502C3 6.44202 4.521 5.21602 6.104 5.28502C4.158 3.98502 1.5 5.36102 1.5 7.74502V10.377V24.525C1.5 25.616 2.386 26.5 3.477 26.5H3.674C3.264 26.138 3 25.615 3 25.025Z" fill="white"/>
<path d="M28.523 27H23.909C23.633 27 23.409 26.776 23.409 26.5V17.5C23.409 17.224 23.633 17 23.909 17C24.185 17 24.409 17.224 24.409 17.5V26H28.523C29.337 26 30 25.338 30 24.525V7.74501C30 6.79301 29.491 5.97101 28.64 5.54401C27.786 5.11601 26.819 5.20201 26.055 5.77501L16.3 13.081C16.122 13.214 15.878 13.214 15.7 13.081L5.946 5.77501C5.181 5.20401 4.214 5.11701 3.36 5.54401C2.509 5.97101 2 6.79301 2 7.74501V24.525C2 25.338 2.663 26 3.477 26H7.591V17.5C7.591 17.224 7.815 17 8.091 17C8.367 17 8.591 17.224 8.591 17.5V26.5C8.591 26.776 8.367 27 8.091 27H3.477C2.111 27 1 25.89 1 24.525V7.74501C1 6.42701 1.733 5.24101 2.913 4.65001C4.096 4.05901 5.487 4.18301 6.546 4.97501L16 12.056L25.455 4.97501C26.514 4.18301 27.906 4.05901 29.088 4.65001C30.267 5.24101 31 6.42701 31 7.74501V24.525C31 25.89 29.889 27 28.523 27Z" fill="#455A64"/>
<path d="M16 21.736C15.895 21.736 15.789 21.703 15.7 21.636L7.791 15.713C7.57 15.547 7.525 15.234 7.69 15.013C7.856 14.793 8.169 14.746 8.39 14.912L16 20.611L23.609 14.912C23.83 14.747 24.144 14.792 24.309 15.013C24.475 15.234 24.429 15.548 24.208 15.713L16.3 21.636C16.211 21.703 16.105 21.736 16 21.736Z" fill="#455A64"/>
</svg>
