<svg width="68" height="68" viewBox="0 0 68 68" fill="none" xmlns="http://www.w3.org/2000/svg">
<path d="M34 65.1467C51.2018 65.1467 65.1467 51.2018 65.1467 34C65.1467 16.7982 51.2018 2.85333 34 2.85333C16.7982 2.85333 2.85333 16.7982 2.85333 34C2.85333 51.2018 16.7982 65.1467 34 65.1467Z" stroke="black" stroke-width="4"/>
<path d="M34 60.88C48.8454 60.88 60.88 48.8454 60.88 34C60.88 19.1546 48.8454 7.12 34 7.12C19.1546 7.12 7.12 19.1546 7.12 34C7.12 48.8454 19.1546 60.88 34 60.88Z" fill="#B4D92A"/>
<path d="M23.7532 29.6241L14.8785 34.8124L23.7532 39.8914L21.7871 42.9771L11.1648 36.3689V33.2832L21.8417 26.6477L23.7532 29.6241ZM26.4186 44.8885L37.8874 21.0771L41.2188 22.6336L29.7773 46.445L26.4186 44.8885ZM56.4998 33.2559V36.3689L45.8502 42.9771L43.9115 40.0279L52.7588 34.8124L43.9115 29.7606L45.8229 26.6477L56.4998 33.2559Z" fill="black"/>
</svg>
