<svg width="28" height="28" viewBox="0 0 28 28" fill="none" xmlns="http://www.w3.org/2000/svg">
<path d="M0.875 2.625V25.375C0.875 26.3375 1.6625 27.125 2.625 27.125H25.375C26.3375 27.125 27.125 26.3375 27.125 25.375V2.625C27.125 1.6625 26.3375 0.875 25.375 0.875H2.625C1.6625 0.875 0.875 1.6625 0.875 2.625ZM8.35625 22.75H5.25V10.675H8.35625V22.75ZM6.825 8.26875C5.95 8.26875 5.25 7.6125 5.25 6.78125C5.25 5.95 5.95 5.29375 6.825 5.29375C7.7 5.29375 8.4 5.95 8.4 6.78125C8.35625 7.6125 7.65625 8.26875 6.825 8.26875ZM22.75 22.75H19.6438V16.7125C19.6438 15.4438 19.6 14.6125 19.4688 14.2188C19.3375 13.825 19.1187 13.5625 18.8562 13.3438C18.55 13.125 18.2 13.0375 17.8062 13.0375C17.2812 13.0375 16.8 13.1687 16.4062 13.475C15.9688 13.7812 15.7063 14.175 15.5312 14.6562C15.3562 15.1375 15.3125 16.0563 15.3125 17.3687V22.75H11.55V10.675H14.6562V12.4688C15.7063 11.1125 17.0625 10.4125 18.6812 10.4125C19.3813 10.4125 20.0375 10.5438 20.65 10.8063C21.2188 11.0688 21.7 11.375 22.0063 11.7688C22.3125 12.1625 22.5312 12.6 22.6187 13.125C22.75 13.6062 22.7937 14.35 22.7937 15.2688V22.75H22.75Z" fill="#0077B5"/>
</svg>
